<?xml version="1.0" encoding="utf-8"?>
<!-- Generator: Adobe Illustrator 22.0.1, SVG Export Plug-In . SVG Version: 6.00 Build 0)  -->
<svg version="1.1" id="Layer_1" xmlns="http://www.w3.org/2000/svg" xmlns:xlink="http://www.w3.org/1999/xlink" x="0px" y="0px"
	 viewBox="0 0 841.9 595.3" style="enable-background:new 0 0 841.9 595.3;" xml:space="preserve">
<style type="text/css">
	.st0{display:none;}
	.st1{fill:#FFFFFF;}
</style>
<g id="im" class="st0">
</g>
<g>
	<path d="M684.2,348.4c17.4-0.1,34.7,6.8,47.3,19c6.3,6.1,11.3,13.5,14.7,21.6s5.1,16.9,5.1,25.7c-0.1,8.8-1.9,17.5-5.3,25.5
		c-1.7,4-3.8,7.9-6.3,11.5s-5.2,7-8.3,10c-6.2,6.1-13.5,11.1-21.6,14.4c-8,3.3-16.7,5.2-25.5,5.3c-8.7,0.1-17.5-1.5-25.6-4.8
		s-15.6-8.2-21.8-14.4c-6.2-6.2-11.3-13.6-14.7-21.7s-5.1-16.9-5.1-25.7c0-8.8,1.7-17.6,5.2-25.7c3.4-8.1,8.5-15.5,14.8-21.6
		C649.5,355.2,666.9,348.3,684.2,348.4z M684.2,348.6c-8.6,0.1-17.3,1.8-25.2,5.2c-7.9,3.4-15.1,8.4-21.1,14.6s-10.8,13.4-13.9,21.4
		c-3.2,7.9-4.9,16.4-4.9,25c0,8.5,1.7,17,5,24.9c3.2,7.9,8,15.1,14.1,21.2c6,6.1,13.2,11,21.1,14.3c7.9,3.3,16.4,5.1,25,5.2
		s17.2-1.5,25.2-4.8s15.3-8.1,21.4-14.3c3-3.1,5.8-6.4,8.1-10c2.4-3.6,4.4-7.4,6-11.4c3.2-8,4.8-16.6,4.7-25.1
		c0-4.3-0.5-8.6-1.3-12.7c-0.8-4.2-2.1-8.3-3.7-12.3c-3.2-7.9-8-15.2-14-21.4c-6-6.2-13.2-11.1-21.1-14.6
		C701.5,350.4,692.9,348.7,684.2,348.6z"/>
</g>
<g>
	<path d="M684.2,370.7c5.8,0,11.5,1,17,2.9c5.5,2,10.7,4.9,15.2,8.8c4.5,4,8.2,8.9,10.6,14.5c2.4,5.6,3.5,11.7,3.4,17.7
		c-0.2,6-1.7,12-4.3,17.4c-0.7,1.3-1.4,2.6-2.1,3.9c-0.8,1.3-1.6,2.5-2.4,3.7l-2.7,3.5l-3,3.2c-8.4,8.1-19.7,13.2-31.6,13.8
		c-5.9,0.2-12-0.6-17.6-2.7c-5.7-2.1-10.9-5.5-15.3-9.7c-4.4-4.2-7.9-9.3-10.4-15c-2.4-5.6-3.7-11.8-3.6-17.9
		c0.1-6.1,1.4-12.3,3.8-17.8c2.5-5.6,6.2-10.5,10.7-14.5s9.8-6.9,15.3-8.8C672.7,371.7,678.5,370.7,684.2,370.7z M684.2,371.3
		c-5.7,0-11.4,1.3-16.4,3.8c-5.1,2.4-9.5,6-13.1,10.1l-2.5,3.2l-2.2,3.4c-0.6,1.2-1.3,2.4-1.9,3.6c-0.5,1.2-1.1,2.5-1.6,3.7
		c-1.9,5-2.9,10.3-2.8,15.6c0,5.3,1.1,10.6,3,15.5c2,4.9,4.9,9.5,8.6,13.4c7.4,7.7,17.9,12.6,28.9,13.2c5.5,0.3,11.1-0.6,16.3-2.6
		s10-5.2,13.9-9.2c0.9-1.1,1.8-2.1,2.7-3.2c0.8-1.2,1.6-2.3,2.4-3.4c0.7-1.2,1.3-2.4,2-3.7c0.5-1.3,1.1-2.5,1.6-3.8
		c1.8-5.2,2.5-10.7,2.4-16.1c-0.4-10.8-4.5-21.2-11.7-29.5c-3.6-4.1-8-7.7-13.1-10.1C695.6,372.6,689.9,371.3,684.2,371.3z"/>
</g>
<g>
	<g>
		<circle class="st1" cx="159.1" cy="414.7" r="66.2"/>
		<path d="M159.1,348.4c17.4-0.1,34.7,6.8,47.3,19c6.3,6.1,11.3,13.5,14.7,21.6s5.1,16.9,5.1,25.7c-0.1,8.8-1.9,17.5-5.3,25.5
			c-1.7,4-3.8,7.9-6.3,11.5s-5.2,7-8.3,10c-6.2,6.1-13.5,11.1-21.6,14.4c-8,3.3-16.7,5.2-25.5,5.3c-8.7,0.1-17.5-1.5-25.6-4.8
			s-15.6-8.2-21.8-14.4c-6.2-6.2-11.3-13.6-14.7-21.7c-3.4-8.1-5.1-16.9-5.1-25.7c0-8.8,1.7-17.6,5.2-25.7
			c3.4-8.1,8.5-15.5,14.8-21.6C124.4,355.2,141.8,348.3,159.1,348.4z M159.1,348.6c-8.6,0.1-17.3,1.8-25.2,5.2
			c-7.9,3.4-15.1,8.4-21.1,14.6s-10.8,13.4-13.9,21.4c-3.2,7.9-4.9,16.4-4.9,25c0,8.5,1.7,17,5,24.9c3.2,7.9,8,15.1,14.1,21.2
			c6,6.1,13.2,11,21.1,14.3c7.9,3.3,16.4,5.1,25,5.2s17.2-1.5,25.2-4.8s15.3-8.1,21.4-14.3c3-3.1,5.8-6.4,8.1-10
			c2.4-3.6,4.4-7.4,6-11.4c3.2-8,4.8-16.6,4.7-25.1c0-4.3-0.5-8.6-1.3-12.7c-0.8-4.2-2.1-8.3-3.7-12.3c-3.2-7.9-8-15.2-14-21.4
			c-6-6.2-13.2-11.1-21.1-14.6C176.5,350.4,167.8,348.7,159.1,348.6z"/>
	</g>
	<g>
		<circle class="st1" cx="159.1" cy="414.7" r="43.7"/>
		<path d="M159.1,370.7c5.8,0,11.5,1,17,2.9c5.5,2,10.7,4.9,15.2,8.8c4.5,4,8.2,8.9,10.6,14.5c2.4,5.6,3.5,11.7,3.4,17.7
			c-0.2,6-1.7,12-4.3,17.4c-0.7,1.3-1.4,2.6-2.1,3.9c-0.8,1.3-1.6,2.5-2.4,3.7l-2.7,3.5l-3,3.2c-8.4,8.1-19.7,13.2-31.6,13.8
			c-5.9,0.2-12-0.6-17.6-2.7c-5.7-2.1-10.9-5.5-15.3-9.7c-4.4-4.2-7.9-9.3-10.4-15c-2.4-5.6-3.7-11.8-3.6-17.9s1.4-12.3,3.8-17.8
			c2.5-5.6,6.2-10.5,10.7-14.5s9.8-6.9,15.3-8.8C147.6,371.7,153.4,370.7,159.1,370.7z M159.1,371.3c-5.7,0-11.4,1.3-16.4,3.8
			c-5.1,2.4-9.5,6-13.1,10.1l-2.5,3.2l-2.2,3.4c-0.6,1.2-1.3,2.4-1.9,3.6c-0.5,1.2-1.1,2.5-1.6,3.7c-1.9,5-2.9,10.3-2.8,15.6
			c0,5.3,1.1,10.6,3,15.5c2,4.9,4.9,9.5,8.6,13.4c7.4,7.7,17.9,12.6,28.9,13.2c5.5,0.3,11.1-0.6,16.3-2.6s10-5.2,13.9-9.2
			c0.9-1.1,1.8-2.1,2.7-3.2c0.8-1.2,1.6-2.3,2.4-3.4c0.7-1.2,1.3-2.4,2-3.7c0.5-1.3,1.1-2.5,1.6-3.8c1.8-5.2,2.5-10.7,2.4-16.1
			c-0.4-10.8-4.5-21.2-11.7-29.5c-3.6-4.1-8-7.7-13.1-10.1C170.5,372.6,164.8,371.3,159.1,371.3z"/>
	</g>
</g>
<g>
	<path d="M69.3,99.8l22-0.4l22-0.3l43.9-0.6l87.9-0.7c29.3-0.3,58.6-0.3,87.9-0.4l87.9-0.1l87.9,0.1c29.3,0.1,58.6,0.2,87.9,0.4
		c29.3,0.2,58.6,0.4,87.9,0.7l44,0.6l22,0.3l22,0.4l-22,0.4l-22,0.3l-44,0.6c-29.3,0.3-58.6,0.6-87.9,0.7
		c-29.3,0.2-58.6,0.3-87.9,0.4l-87.9,0.1l-87.9-0.1c-29.3-0.1-58.6-0.2-87.9-0.4l-87.9-0.7l-43.9-0.6l-22-0.3L69.3,99.8z"/>
</g>
<g>
	<path d="M69.3,495.4l22-0.4l22-0.3l43.9-0.6l87.9-0.7c29.3-0.3,58.6-0.3,87.9-0.4l87.9-0.1l87.9,0.1c29.3,0.1,58.6,0.2,87.9,0.4
		c29.3,0.2,58.6,0.4,87.9,0.7l44,0.6l22,0.3l22,0.4l-22,0.4l-22,0.3l-44,0.6c-29.3,0.3-58.6,0.6-87.9,0.7
		c-29.3,0.2-58.6,0.3-87.9,0.4l-87.9,0.1l-87.9-0.1c-29.3-0.1-58.6-0.2-87.9-0.4l-87.9-0.7l-43.9-0.6l-22-0.3L69.3,495.4z"/>
</g>
<g>
	<path d="M770.5,104.9c1,32,1.6,64,1.9,96c0.2,16,0.3,32,0.4,48l0.1,48l-0.1,48c-0.1,16-0.2,32-0.4,48c-0.4,32-0.9,64-2,96
		c-1-32-1.6-64-2-96c-0.2-16-0.3-32-0.4-48l-0.1-48l0.1-48c0.1-16,0.2-32,0.4-48C768.9,168.9,769.5,136.9,770.5,104.9z"/>
</g>
<g>
	<path d="M73,104.9c1,32,1.6,64,1.9,96c0.2,16,0.3,32,0.4,48l0.1,48l-0.1,48c-0.1,16-0.2,32-0.4,48c-0.4,32-0.9,64-2,96
		c-1-32-1.6-64-2-96c-0.2-16-0.3-32-0.4-48l-0.1-48l0.1-48c0.1-16,0.2-32,0.4-48C71.4,168.9,72,136.9,73,104.9z"/>
</g>
<g>
	<path d="M256,348.4c-1.3,2.9-2.7,5.7-4.2,8.4c-1.5,2.8-3.1,5.4-4.7,8.1c-1.6,2.7-3.3,5.3-5,7.9c-1.7,2.6-3.5,5.2-5.5,7.6
		c1.3-2.9,2.7-5.7,4.2-8.4c1.5-2.8,3.1-5.4,4.7-8.1c1.6-2.7,3.3-5.3,5-7.9C252.2,353.4,254,350.9,256,348.4z"/>
</g>
<g>
	<path d="M255.9,348.6c1.8,2.4,3.4,4.9,5,7.5c1.6,2.5,3.1,5.1,4.5,7.7c1.4,2.6,2.8,5.3,4.1,7.9c1.3,2.7,2.6,5.4,3.6,8.2
		c-1.8-2.4-3.4-4.9-5-7.5c-1.6-2.5-3.1-5.1-4.5-7.7c-1.4-2.6-2.8-5.3-4.1-7.9C258.2,354.1,257,351.4,255.9,348.6z"/>
</g>
<g>
	<path d="M255.9,356.2c-1.3,2.9-2.7,5.7-4.2,8.4c-1.5,2.8-3.1,5.4-4.7,8.1c-1.6,2.7-3.3,5.3-5,7.9c-1.7,2.6-3.5,5.2-5.5,7.6
		c1.3-2.9,2.7-5.7,4.2-8.4c1.5-2.8,3.1-5.4,4.7-8.1c1.6-2.7,3.3-5.3,5-7.9C252.1,361.2,253.9,358.7,255.9,356.2z"/>
</g>
<g>
	<path d="M255.7,356.4c1.8,2.4,3.4,4.9,5,7.5c1.6,2.5,3.1,5.1,4.5,7.7c1.4,2.6,2.8,5.3,4.1,7.9c1.3,2.7,2.6,5.4,3.6,8.2
		c-1.8-2.4-3.4-4.9-5-7.5c-1.6-2.5-3.1-5.1-4.5-7.7c-1.4-2.6-2.8-5.3-4.1-7.9C258.1,361.9,256.8,359.2,255.7,356.4z"/>
</g>
<g>
	<path d="M253.4,472.7c1.3-2.9,2.7-5.7,4.2-8.4c1.5-2.8,3.1-5.4,4.7-8.1c1.6-2.7,3.3-5.3,5-7.9c1.7-2.6,3.5-5.2,5.5-7.6
		c-1.3,2.9-2.7,5.7-4.2,8.4c-1.5,2.8-3.1,5.4-4.7,8.1c-1.6,2.7-3.3,5.3-5,7.9C257.2,467.7,255.4,470.2,253.4,472.7z"/>
</g>
<g>
	<path d="M253.6,472.5c-1.8-2.4-3.4-4.9-5-7.5c-1.6-2.5-3.1-5.1-4.5-7.7c-1.4-2.6-2.8-5.3-4.1-7.9c-1.3-2.7-2.6-5.4-3.6-8.2
		c1.8,2.4,3.4,4.9,5,7.5c1.6,2.5,3.1,5.1,4.5,7.7c1.4,2.6,2.8,5.3,4.1,7.9C251.2,466.9,252.5,469.7,253.6,472.5z"/>
</g>
<g>
	<path d="M253.7,464.1c1.3-2.9,2.7-5.7,4.2-8.4c1.5-2.8,3.1-5.4,4.7-8.1c1.6-2.7,3.3-5.3,5-7.9c1.7-2.6,3.5-5.2,5.5-7.6
		c-1.3,2.9-2.7,5.7-4.2,8.4c-1.5,2.8-3.1,5.4-4.7,8.1c-1.6,2.7-3.3,5.3-5,7.9C257.5,459,255.7,461.6,253.7,464.1z"/>
</g>
<g>
	<path d="M253.9,463.9c-1.8-2.4-3.4-4.9-5-7.5c-1.6-2.5-3.1-5.1-4.5-7.7c-1.4-2.6-2.8-5.3-4.1-7.9c-1.3-2.7-2.6-5.4-3.6-8.2
		c1.8,2.4,3.4,4.9,5,7.5c1.6,2.5,3.1,5.1,4.5,7.7c1.4,2.6,2.8,5.3,4.1,7.9C251.5,458.3,252.8,461,253.9,463.9z"/>
</g>
<g>
	<path d="M743.4,325.2c-2.9-1.3-5.7-2.7-8.4-4.2c-2.8-1.5-5.4-3.1-8.1-4.7c-2.7-1.6-5.3-3.3-7.9-5c-2.6-1.7-5.2-3.5-7.6-5.5
		c2.9,1.3,5.7,2.7,8.4,4.2c2.8,1.5,5.4,3.1,8.1,4.7c2.7,1.6,5.3,3.3,7.9,5C738.4,321.5,740.9,323.3,743.4,325.2z"/>
</g>
<g>
	<path d="M743.2,325.1c-2.4,1.8-4.9,3.4-7.5,5c-2.5,1.6-5.1,3.1-7.7,4.5c-2.6,1.4-5.3,2.8-7.9,4.1c-2.7,1.3-5.4,2.6-8.2,3.6
		c2.4-1.8,4.9-3.4,7.5-5c2.5-1.6,5.1-3.1,7.7-4.5c2.6-1.4,5.3-2.8,7.9-4.1C737.6,327.4,740.4,326.2,743.2,325.1z"/>
</g>
<g>
	<path d="M735.6,325.1c-2.9-1.3-5.7-2.7-8.4-4.2c-2.8-1.5-5.4-3.1-8.1-4.7c-2.7-1.6-5.3-3.3-7.9-5c-2.6-1.7-5.2-3.5-7.6-5.5
		c2.9,1.3,5.7,2.7,8.4,4.2c2.8,1.5,5.4,3.1,8.1,4.7c2.7,1.6,5.3,3.3,7.9,5C730.5,321.3,733.1,323.1,735.6,325.1z"/>
</g>
<g>
	<path d="M735.4,325c-2.4,1.8-4.9,3.4-7.5,5c-2.5,1.6-5.1,3.1-7.7,4.5c-2.6,1.4-5.3,2.8-7.9,4.1c-2.7,1.3-5.4,2.6-8.2,3.6
		c2.4-1.8,4.9-3.4,7.5-5c2.5-1.6,5.1-3.1,7.7-4.5c2.6-1.4,5.3-2.8,7.9-4.1C729.8,327.3,732.5,326,735.4,325z"/>
</g>
<g>
	<path d="M619.1,322.6c2.9,1.3,5.7,2.7,8.4,4.2c2.8,1.5,5.4,3.1,8.1,4.7c2.7,1.6,5.3,3.3,7.9,5c2.6,1.7,5.2,3.5,7.6,5.5
		c-2.9-1.3-5.7-2.7-8.4-4.2c-2.8-1.5-5.4-3.1-8.1-4.7c-2.7-1.6-5.3-3.3-7.9-5C624.1,326.4,621.6,324.6,619.1,322.6z"/>
</g>
<g>
	<path d="M619.3,322.8c2.4-1.8,4.9-3.4,7.5-5c2.5-1.6,5.1-3.1,7.7-4.5c2.6-1.4,5.3-2.8,7.9-4.1c2.7-1.3,5.4-2.6,8.2-3.6
		c-2.4,1.8-4.9,3.4-7.5,5c-2.5,1.6-5.1,3.1-7.7,4.5c-2.6,1.4-5.3,2.8-7.9,4.1C624.8,320.5,622.1,321.7,619.3,322.8z"/>
</g>
<g>
	<path d="M627.7,322.9c2.9,1.3,5.7,2.7,8.4,4.2c2.8,1.5,5.4,3.1,8.1,4.7c2.7,1.6,5.3,3.3,7.9,5c2.6,1.7,5.2,3.5,7.6,5.5
		c-2.9-1.3-5.7-2.7-8.4-4.2c-2.8-1.5-5.4-3.1-8.1-4.7c-2.7-1.6-5.3-3.3-7.9-5C632.7,326.7,630.2,324.9,627.7,322.9z"/>
</g>
<g>
	<path d="M627.9,323.1c2.4-1.8,4.9-3.4,7.5-5c2.5-1.6,5.1-3.1,7.7-4.5c2.6-1.4,5.3-2.8,7.9-4.1c2.7-1.3,5.4-2.6,8.2-3.6
		c-2.4,1.8-4.9,3.4-7.5,5c-2.5,1.6-5.1,3.1-7.7,4.5c-2.6,1.4-5.3,2.8-7.9,4.1C633.4,320.8,630.7,322,627.9,323.1z"/>
</g>
</svg>
